<mxfile host="Electron" modified="2024-03-07T12:33:36.866Z" agent="Mozilla/5.0 (Windows NT 10.0; Win64; x64) AppleWebKit/537.36 (KHTML, like Gecko) draw.io/23.1.5 Chrome/120.0.6099.109 Electron/28.1.0 Safari/537.36" etag="xDfXqMyle7aUPCx0b7Ur" version="23.1.5" type="device">
  <diagram id="O3whct_VJJggGx5-_gyD" name="Page-1">
    <mxGraphModel dx="-486" dy="2044" grid="1" gridSize="10" guides="1" tooltips="1" connect="1" arrows="1" fold="1" page="1" pageScale="1" pageWidth="1920" pageHeight="1200" math="0" shadow="0">
      <root>
        <mxCell id="0" />
        <mxCell id="1" parent="0" />
        <mxCell id="dOY5xB3ABbcubVe6LwlI-115" value="" style="rounded=0;whiteSpace=wrap;html=1;fontSize=22;fillColor=#f5f5f5;fontColor=#333333;strokeColor=#666666;direction=east;" parent="1" vertex="1">
          <mxGeometry x="2030" y="50" width="1750" height="1610" as="geometry" />
        </mxCell>
        <mxCell id="dOY5xB3ABbcubVe6LwlI-116" value="&lt;span style=&quot;color: rgba(0 , 0 , 0 , 0) ; font-family: monospace ; font-size: 0px&quot;&gt;%3CmxGraphModel%3E%3Croot%3E%3CmxCell%20id%3D%220%22%2F%3E%3CmxCell%20id%3D%221%22%20parent%3D%220%22%2F%3E%3CmxCell%20id%3D%222%22%20value%3D%22%22%20style%3D%22rounded%3D0%3BwhiteSpace%3Dwrap%3Bhtml%3D1%3BstrokeWidth%3D2%3BfillColor%3D%23dae8fc%3BstrokeColor%3D%236c8ebf%3B%22%20vertex%3D%221%22%20parent%3D%221%22%3E%3CmxGeometry%20x%3D%22-120%22%20y%3D%22190%22%20width%3D%221920%22%20height%3D%22240%22%20as%3D%22geometry%22%2F%3E%3C%2FmxCell%3E%3C%2Froot%3E%3C%2FmxGraphModel%3E&lt;/span&gt;" style="rounded=0;whiteSpace=wrap;html=1;strokeWidth=2;" parent="1" vertex="1">
          <mxGeometry x="2060" y="860" width="1690" height="350" as="geometry" />
        </mxCell>
        <mxCell id="dOY5xB3ABbcubVe6LwlI-117" value="&lt;span style=&quot;color: rgba(0 , 0 , 0 , 0) ; font-family: monospace ; font-size: 0px&quot;&gt;%3CmxGraphModel%3E%3Croot%3E%3CmxCell%20id%3D%220%22%2F%3E%3CmxCell%20id%3D%221%22%20parent%3D%220%22%2F%3E%3CmxCell%20id%3D%222%22%20value%3D%22%22%20style%3D%22rounded%3D0%3BwhiteSpace%3Dwrap%3Bhtml%3D1%3BstrokeWidth%3D2%3BfillColor%3D%23dae8fc%3BstrokeColor%3D%236c8ebf%3B%22%20vertex%3D%221%22%20parent%3D%221%22%3E%3CmxGeometry%20x%3D%22-120%22%20y%3D%22190%22%20width%3D%221920%22%20height%3D%22240%22%20as%3D%22geometry%22%2F%3E%3C%2FmxCell%3E%3C%2Froot%3E%3C%2FmxGraphModel%3E&lt;/span&gt;" style="rounded=0;whiteSpace=wrap;html=1;strokeWidth=2;" parent="1" vertex="1">
          <mxGeometry x="2060" y="1210.24" width="1690" height="419.76" as="geometry" />
        </mxCell>
        <mxCell id="dOY5xB3ABbcubVe6LwlI-118" value="&lt;span style=&quot;color: rgba(0 , 0 , 0 , 0) ; font-family: monospace ; font-size: 0px&quot;&gt;%3CmxGraphModel%3E%3Croot%3E%3CmxCell%20id%3D%220%22%2F%3E%3CmxCell%20id%3D%221%22%20parent%3D%220%22%2F%3E%3CmxCell%20id%3D%222%22%20value%3D%22%22%20style%3D%22rounded%3D0%3BwhiteSpace%3Dwrap%3Bhtml%3D1%3BstrokeWidth%3D2%3BfillColor%3D%23dae8fc%3BstrokeColor%3D%236c8ebf%3B%22%20vertex%3D%221%22%20parent%3D%221%22%3E%3CmxGeometry%20x%3D%22-120%22%20y%3D%22190%22%20width%3D%221920%22%20height%3D%22240%22%20as%3D%22geometry%22%2F%3E%3C%2FmxCell%3E%3C%2Froot%3E%3C%2FmxGraphModel%3E&lt;/span&gt;" style="rounded=0;whiteSpace=wrap;html=1;strokeWidth=2;" parent="1" vertex="1">
          <mxGeometry x="2060" y="110" width="1690" height="250" as="geometry" />
        </mxCell>
        <mxCell id="dOY5xB3ABbcubVe6LwlI-119" value="&lt;span style=&quot;color: rgba(0 , 0 , 0 , 0) ; font-family: monospace ; font-size: 0px&quot;&gt;%3CmxGraphModel%3E%3Croot%3E%3CmxCell%20id%3D%220%22%2F%3E%3CmxCell%20id%3D%221%22%20parent%3D%220%22%2F%3E%3CmxCell%20id%3D%222%22%20value%3D%22%22%20style%3D%22rounded%3D0%3BwhiteSpace%3Dwrap%3Bhtml%3D1%3BstrokeWidth%3D2%3BfillColor%3D%23dae8fc%3BstrokeColor%3D%236c8ebf%3B%22%20vertex%3D%221%22%20parent%3D%221%22%3E%3CmxGeometry%20x%3D%22-120%22%20y%3D%22190%22%20width%3D%221920%22%20height%3D%22240%22%20as%3D%22geometry%22%2F%3E%3C%2FmxCell%3E%3C%2Froot%3E%3C%2FmxGraphModel%3E&lt;/span&gt;" style="rounded=0;whiteSpace=wrap;html=1;strokeWidth=2;" parent="1" vertex="1">
          <mxGeometry x="2060" y="360" width="1690" height="250" as="geometry" />
        </mxCell>
        <mxCell id="dOY5xB3ABbcubVe6LwlI-120" value="&lt;span style=&quot;color: rgba(0 , 0 , 0 , 0) ; font-family: monospace ; font-size: 0px&quot;&gt;%3CmxGraphModel%3E%3Croot%3E%3CmxCell%20id%3D%220%22%2F%3E%3CmxCell%20id%3D%221%22%20parent%3D%220%22%2F%3E%3CmxCell%20id%3D%222%22%20value%3D%22%22%20style%3D%22rounded%3D0%3BwhiteSpace%3Dwrap%3Bhtml%3D1%3BstrokeWidth%3D2%3BfillColor%3D%23dae8fc%3BstrokeColor%3D%236c8ebf%3B%22%20vertex%3D%221%22%20parent%3D%221%22%3E%3CmxGeometry%20x%3D%22-120%22%20y%3D%22190%22%20width%3D%221920%22%20height%3D%22240%22%20as%3D%22geometry%22%2F%3E%3C%2FmxCell%3E%3C%2Froot%3E%3C%2FmxGraphModel%3E&lt;/span&gt;" style="rounded=0;whiteSpace=wrap;html=1;strokeWidth=2;" parent="1" vertex="1">
          <mxGeometry x="2060" y="610" width="1690" height="250" as="geometry" />
        </mxCell>
        <mxCell id="dOY5xB3ABbcubVe6LwlI-121" style="edgeStyle=orthogonalEdgeStyle;rounded=0;orthogonalLoop=1;jettySize=auto;html=1;exitX=0.5;exitY=1;exitDx=0;exitDy=0;fontStyle=1;strokeWidth=2;strokeColor=#00CC00;" parent="1" source="dOY5xB3ABbcubVe6LwlI-189" target="dOY5xB3ABbcubVe6LwlI-124" edge="1">
          <mxGeometry relative="1" as="geometry" />
        </mxCell>
        <mxCell id="dOY5xB3ABbcubVe6LwlI-122" value="PROVIDE CONSENT &lt;br&gt;&lt;u&gt;OB.1.4.A&lt;/u&gt;" style="rounded=0;whiteSpace=wrap;html=1;fontStyle=1;strokeWidth=2;" parent="1" vertex="1">
          <mxGeometry x="2210" y="280" width="120" height="60" as="geometry" />
        </mxCell>
        <mxCell id="dOY5xB3ABbcubVe6LwlI-123" style="edgeStyle=orthogonalEdgeStyle;rounded=0;orthogonalLoop=1;jettySize=auto;html=1;exitX=0.5;exitY=1;exitDx=0;exitDy=0;strokeColor=#00CC00;fontStyle=1;strokeWidth=2;entryX=0.5;entryY=0;entryDx=0;entryDy=0;" parent="1" source="dOY5xB3ABbcubVe6LwlI-124" target="dOY5xB3ABbcubVe6LwlI-196" edge="1">
          <mxGeometry relative="1" as="geometry" />
        </mxCell>
        <mxCell id="dOY5xB3ABbcubVe6LwlI-124" value="VERIFY CONSENT GIVEN FOR BIOMETRIC COLLECTION" style="rounded=0;whiteSpace=wrap;html=1;fontStyle=1;strokeWidth=2;" parent="1" vertex="1">
          <mxGeometry x="2210" y="680" width="120" height="60" as="geometry" />
        </mxCell>
        <mxCell id="dOY5xB3ABbcubVe6LwlI-125" value="APPLICANT" style="text;html=1;align=center;verticalAlign=middle;resizable=0;points=[];autosize=1;strokeColor=none;fillColor=none;fontStyle=1;strokeWidth=2;fontSize=22;horizontal=0;" parent="1" vertex="1">
          <mxGeometry x="2060" y="165" width="50" height="140" as="geometry" />
        </mxCell>
        <mxCell id="dOY5xB3ABbcubVe6LwlI-126" value="PARENT/GUARDIAN/&lt;br style=&quot;font-size: 22px;&quot;&gt;INTRODUCER" style="text;html=1;align=center;verticalAlign=middle;resizable=0;points=[];autosize=1;strokeColor=none;fillColor=none;fontStyle=1;strokeWidth=2;fontSize=22;horizontal=0;" parent="1" vertex="1">
          <mxGeometry x="2060" y="370" width="80" height="230" as="geometry" />
        </mxCell>
        <mxCell id="dOY5xB3ABbcubVe6LwlI-127" value="ADMINISTRATOR" style="text;html=1;align=center;verticalAlign=middle;resizable=0;points=[];autosize=1;strokeColor=none;fillColor=none;fontStyle=1;strokeWidth=2;fontSize=22;horizontal=0;" parent="1" vertex="1">
          <mxGeometry x="2060" y="635" width="50" height="200" as="geometry" />
        </mxCell>
        <mxCell id="dOY5xB3ABbcubVe6LwlI-128" value="C" style="ellipse;whiteSpace=wrap;html=1;aspect=fixed;fontSize=32;strokeWidth=2;fontStyle=1" parent="1" vertex="1">
          <mxGeometry x="2062" y="55" width="50" height="50" as="geometry" />
        </mxCell>
        <mxCell id="dOY5xB3ABbcubVe6LwlI-129" style="edgeStyle=orthogonalEdgeStyle;rounded=0;orthogonalLoop=1;jettySize=auto;html=1;exitX=0.5;exitY=1;exitDx=0;exitDy=0;exitPerimeter=0;entryX=0.5;entryY=0;entryDx=0;entryDy=0;strokeColor=#00CC00;fontStyle=1;strokeWidth=2;" parent="1" source="dOY5xB3ABbcubVe6LwlI-130" target="dOY5xB3ABbcubVe6LwlI-122" edge="1">
          <mxGeometry relative="1" as="geometry" />
        </mxCell>
        <mxCell id="dOY5xB3ABbcubVe6LwlI-130" value="&lt;b&gt;START&lt;/b&gt;" style="strokeWidth=2;html=1;shape=mxgraph.flowchart.terminator;whiteSpace=wrap;fillColor=#d5e8d4;strokeColor=#82b366;" parent="1" vertex="1">
          <mxGeometry x="2220" y="170" width="100" height="40" as="geometry" />
        </mxCell>
        <mxCell id="dOY5xB3ABbcubVe6LwlI-131" style="edgeStyle=orthogonalEdgeStyle;rounded=0;orthogonalLoop=1;jettySize=auto;html=1;exitX=1;exitY=0.5;exitDx=0;exitDy=0;entryX=0;entryY=0.5;entryDx=0;entryDy=0;strokeColor=#00CC00;fontStyle=1;strokeWidth=2;" parent="1" source="dOY5xB3ABbcubVe6LwlI-133" target="dOY5xB3ABbcubVe6LwlI-135" edge="1">
          <mxGeometry relative="1" as="geometry" />
        </mxCell>
        <mxCell id="dOY5xB3ABbcubVe6LwlI-243" style="edgeStyle=orthogonalEdgeStyle;rounded=0;orthogonalLoop=1;jettySize=auto;html=1;exitX=0.5;exitY=0;exitDx=0;exitDy=0;entryX=0.25;entryY=1;entryDx=0;entryDy=0;strokeColor=#FF0000;fontStyle=1;strokeWidth=2;" parent="1" source="dOY5xB3ABbcubVe6LwlI-133" target="dOY5xB3ABbcubVe6LwlI-241" edge="1">
          <mxGeometry relative="1" as="geometry" />
        </mxCell>
        <mxCell id="dOY5xB3ABbcubVe6LwlI-133" value="IF&lt;br&gt;APPLICANT AGE &amp;gt;5" style="rounded=0;whiteSpace=wrap;html=1;fontStyle=1;strokeWidth=2;shape=rhombus;perimeter=rhombusPerimeter;" parent="1" vertex="1">
          <mxGeometry x="2367" y="670" width="90" height="80" as="geometry" />
        </mxCell>
        <mxCell id="dOY5xB3ABbcubVe6LwlI-134" style="edgeStyle=orthogonalEdgeStyle;rounded=0;orthogonalLoop=1;jettySize=auto;html=1;exitX=0.5;exitY=0;exitDx=0;exitDy=0;strokeColor=#00CC00;fontStyle=1;strokeWidth=2;" parent="1" source="dOY5xB3ABbcubVe6LwlI-135" target="dOY5xB3ABbcubVe6LwlI-139" edge="1">
          <mxGeometry relative="1" as="geometry">
            <Array as="points">
              <mxPoint x="2550" y="360" />
              <mxPoint x="2550" y="360" />
            </Array>
          </mxGeometry>
        </mxCell>
        <mxCell id="dOY5xB3ABbcubVe6LwlI-135" value="REQUEST FINGERPRINT SCAN OF APPLICANT" style="rounded=0;whiteSpace=wrap;html=1;fontStyle=1;strokeWidth=2;" parent="1" vertex="1">
          <mxGeometry x="2490" y="680" width="120" height="60" as="geometry" />
        </mxCell>
        <mxCell id="dOY5xB3ABbcubVe6LwlI-136" style="edgeStyle=orthogonalEdgeStyle;rounded=0;orthogonalLoop=1;jettySize=auto;html=1;exitX=0.5;exitY=0;exitDx=0;exitDy=0;entryX=0;entryY=0.5;entryDx=0;entryDy=0;strokeColor=#00CC00;fontStyle=1;strokeWidth=2;" parent="1" source="dOY5xB3ABbcubVe6LwlI-137" target="dOY5xB3ABbcubVe6LwlI-133" edge="1">
          <mxGeometry relative="1" as="geometry">
            <Array as="points">
              <mxPoint x="2403" y="1320" />
              <mxPoint x="2350" y="1320" />
              <mxPoint x="2350" y="710" />
            </Array>
          </mxGeometry>
        </mxCell>
        <mxCell id="dOY5xB3ABbcubVe6LwlI-137" value="INITIATES FINGERPRINT BIOMETRIC COLLECTION" style="rounded=0;whiteSpace=wrap;html=1;fontStyle=1;strokeWidth=2;" parent="1" vertex="1">
          <mxGeometry x="2355" y="1355.5" width="95" height="60" as="geometry" />
        </mxCell>
        <mxCell id="dOY5xB3ABbcubVe6LwlI-138" style="edgeStyle=orthogonalEdgeStyle;rounded=0;orthogonalLoop=1;jettySize=auto;html=1;exitX=1;exitY=0.5;exitDx=0;exitDy=0;strokeColor=#00CC00;fontStyle=1;strokeWidth=2;" parent="1" source="dOY5xB3ABbcubVe6LwlI-139" target="dOY5xB3ABbcubVe6LwlI-143" edge="1">
          <mxGeometry relative="1" as="geometry" />
        </mxCell>
        <mxCell id="dOY5xB3ABbcubVe6LwlI-139" value="POSITIONS ALL AVAILABLE &lt;br&gt;FINGERS IN THE SCANNER" style="rounded=0;whiteSpace=wrap;html=1;fontStyle=1;strokeWidth=2;shape=parallelogram;perimeter=parallelogramPerimeter;fixedSize=1;" parent="1" vertex="1">
          <mxGeometry x="2486" y="180" width="130" height="70" as="geometry" />
        </mxCell>
        <mxCell id="dOY5xB3ABbcubVe6LwlI-140" style="edgeStyle=orthogonalEdgeStyle;rounded=0;orthogonalLoop=1;jettySize=auto;html=1;exitX=1;exitY=0.75;exitDx=0;exitDy=0;entryX=0.5;entryY=0;entryDx=0;entryDy=0;strokeColor=#00CC00;fontStyle=1;strokeWidth=2;" parent="1" source="dOY5xB3ABbcubVe6LwlI-141" target="dOY5xB3ABbcubVe6LwlI-150" edge="1">
          <mxGeometry relative="1" as="geometry" />
        </mxCell>
        <mxCell id="dOY5xB3ABbcubVe6LwlI-141" value="POSITIONS ALL AVAILABLE &lt;br&gt;FINGERS&lt;br style=&quot;border-color: var(--border-color);&quot;&gt;IN THE SCANNER&lt;br&gt;-------------&lt;br&gt;WITH P/G/I ASSISTANCE" style="rounded=0;whiteSpace=wrap;html=1;fontStyle=1;strokeWidth=2;shape=parallelogram;perimeter=parallelogramPerimeter;fixedSize=1;" parent="1" vertex="1">
          <mxGeometry x="2764" y="265" width="130" height="160" as="geometry" />
        </mxCell>
        <mxCell id="dOY5xB3ABbcubVe6LwlI-142" style="edgeStyle=orthogonalEdgeStyle;rounded=0;orthogonalLoop=1;jettySize=auto;html=1;exitX=0.5;exitY=1;exitDx=0;exitDy=0;entryX=0.5;entryY=0;entryDx=0;entryDy=0;strokeColor=#00CC00;fontStyle=1;strokeWidth=2;" parent="1" source="dOY5xB3ABbcubVe6LwlI-143" target="dOY5xB3ABbcubVe6LwlI-146" edge="1">
          <mxGeometry relative="1" as="geometry" />
        </mxCell>
        <mxCell id="dOY5xB3ABbcubVe6LwlI-143" value="CAPTURE &lt;br&gt;FINGERPRINT&amp;nbsp;&lt;br&gt;IMAGE&lt;br&gt;OF APPLICANT" style="rounded=0;whiteSpace=wrap;html=1;fontStyle=1;strokeWidth=2;shape=label;fixedSize=1;" parent="1" vertex="1">
          <mxGeometry x="2620" y="680" width="120" height="60" as="geometry" />
        </mxCell>
        <mxCell id="dOY5xB3ABbcubVe6LwlI-144" style="edgeStyle=orthogonalEdgeStyle;rounded=0;orthogonalLoop=1;jettySize=auto;html=1;exitX=0.5;exitY=1;exitDx=0;exitDy=0;strokeColor=#FF0000;fontStyle=1;strokeWidth=2;entryX=0.25;entryY=0;entryDx=0;entryDy=0;" parent="1" source="dOY5xB3ABbcubVe6LwlI-146" target="dOY5xB3ABbcubVe6LwlI-209" edge="1">
          <mxGeometry relative="1" as="geometry">
            <Array as="points">
              <mxPoint x="2680" y="1290" />
              <mxPoint x="2863" y="1290" />
            </Array>
          </mxGeometry>
        </mxCell>
        <mxCell id="dOY5xB3ABbcubVe6LwlI-145" style="edgeStyle=orthogonalEdgeStyle;rounded=0;orthogonalLoop=1;jettySize=auto;html=1;exitX=1;exitY=0.5;exitDx=0;exitDy=0;strokeColor=#00CC00;fontStyle=1;strokeWidth=2;" parent="1" source="dOY5xB3ABbcubVe6LwlI-146" target="dOY5xB3ABbcubVe6LwlI-211" edge="1">
          <mxGeometry relative="1" as="geometry" />
        </mxCell>
        <mxCell id="dOY5xB3ABbcubVe6LwlI-146" value="IF&amp;nbsp;&lt;br&gt;FINGERPRINT&lt;br&gt;&amp;nbsp;SCAN &lt;br&gt;SUCCESS" style="rounded=0;whiteSpace=wrap;html=1;fontStyle=1;strokeWidth=2;shape=rhombus;perimeter=rhombusPerimeter;" parent="1" vertex="1">
          <mxGeometry x="2619" y="937.5" width="121.25" height="92.5" as="geometry" />
        </mxCell>
        <mxCell id="dOY5xB3ABbcubVe6LwlI-147" style="edgeStyle=orthogonalEdgeStyle;rounded=0;orthogonalLoop=1;jettySize=auto;html=1;exitX=0.5;exitY=0;exitDx=0;exitDy=0;entryX=0.5;entryY=1;entryDx=0;entryDy=0;strokeColor=#00CC00;fontStyle=1;strokeWidth=2;" parent="1" source="dOY5xB3ABbcubVe6LwlI-148" target="dOY5xB3ABbcubVe6LwlI-141" edge="1">
          <mxGeometry relative="1" as="geometry" />
        </mxCell>
        <mxCell id="dOY5xB3ABbcubVe6LwlI-148" value="REQUEST FINGERPRINT&amp;nbsp;SCAN OF APPLICANT&lt;br&gt;-------------&lt;br style=&quot;border-color: var(--border-color);&quot;&gt;WITH P/G/I ASSISTANCE" style="rounded=0;whiteSpace=wrap;html=1;fontStyle=1;strokeWidth=2;" parent="1" vertex="1">
          <mxGeometry x="2750" y="673.5" width="160" height="80" as="geometry" />
        </mxCell>
        <mxCell id="dOY5xB3ABbcubVe6LwlI-149" style="edgeStyle=orthogonalEdgeStyle;rounded=0;orthogonalLoop=1;jettySize=auto;html=1;exitX=0.5;exitY=1;exitDx=0;exitDy=0;entryX=0.5;entryY=0;entryDx=0;entryDy=0;strokeColor=#00CC00;fontStyle=1;strokeWidth=2;" parent="1" source="dOY5xB3ABbcubVe6LwlI-150" target="dOY5xB3ABbcubVe6LwlI-153" edge="1">
          <mxGeometry relative="1" as="geometry" />
        </mxCell>
        <mxCell id="dOY5xB3ABbcubVe6LwlI-150" value="CAPTURE FINGERPRINT&lt;br&gt;IMAGE OF APPLICANT&lt;br&gt;-------------&lt;br style=&quot;border-color: var(--border-color);&quot;&gt;WITH P/G/I &lt;br&gt;ASSISTANCE" style="rounded=0;whiteSpace=wrap;html=1;fontStyle=1;strokeWidth=2;shape=label;fixedSize=1;" parent="1" vertex="1">
          <mxGeometry x="2940" y="673.5" width="160" height="80" as="geometry" />
        </mxCell>
        <mxCell id="dOY5xB3ABbcubVe6LwlI-151" style="edgeStyle=orthogonalEdgeStyle;rounded=0;orthogonalLoop=1;jettySize=auto;html=1;exitX=0.5;exitY=1;exitDx=0;exitDy=0;strokeColor=#FF0000;fontStyle=1;strokeWidth=2;entryX=0.5;entryY=0;entryDx=0;entryDy=0;" parent="1" source="dOY5xB3ABbcubVe6LwlI-153" target="dOY5xB3ABbcubVe6LwlI-209" edge="1">
          <mxGeometry relative="1" as="geometry">
            <Array as="points">
              <mxPoint x="3020" y="1290" />
              <mxPoint x="2900" y="1290" />
            </Array>
          </mxGeometry>
        </mxCell>
        <mxCell id="dOY5xB3ABbcubVe6LwlI-152" style="edgeStyle=orthogonalEdgeStyle;rounded=0;orthogonalLoop=1;jettySize=auto;html=1;exitX=0;exitY=0.5;exitDx=0;exitDy=0;strokeColor=#00CC00;fontStyle=1;strokeWidth=2;" parent="1" source="dOY5xB3ABbcubVe6LwlI-153" target="dOY5xB3ABbcubVe6LwlI-211" edge="1">
          <mxGeometry relative="1" as="geometry" />
        </mxCell>
        <mxCell id="dOY5xB3ABbcubVe6LwlI-153" value="IF&amp;nbsp;&lt;br style=&quot;border-color: var(--border-color);&quot;&gt;FINGERPRINT&lt;br style=&quot;border-color: var(--border-color);&quot;&gt;&amp;nbsp;SCAN&lt;br style=&quot;border-color: var(--border-color);&quot;&gt;SUCCESS" style="rounded=0;whiteSpace=wrap;html=1;fontStyle=1;strokeWidth=2;shape=rhombus;perimeter=rhombusPerimeter;" parent="1" vertex="1">
          <mxGeometry x="2961.88" y="940" width="116.25" height="87.5" as="geometry" />
        </mxCell>
        <mxCell id="dOY5xB3ABbcubVe6LwlI-154" style="edgeStyle=orthogonalEdgeStyle;rounded=0;orthogonalLoop=1;jettySize=auto;html=1;exitX=0.5;exitY=1;exitDx=0;exitDy=0;entryX=0;entryY=0.5;entryDx=0;entryDy=0;entryPerimeter=0;strokeColor=#FF0000;fontStyle=1;strokeWidth=2;" parent="1" source="dOY5xB3ABbcubVe6LwlI-156" target="dOY5xB3ABbcubVe6LwlI-158" edge="1">
          <mxGeometry relative="1" as="geometry">
            <Array as="points">
              <mxPoint x="3060" y="1565" />
            </Array>
          </mxGeometry>
        </mxCell>
        <mxCell id="dOY5xB3ABbcubVe6LwlI-156" value="IF&lt;br&gt;FINGERPRINT&lt;br&gt;BIOMETRIC&lt;br&gt;DATA IS &lt;br&gt;UNIQUE" style="rounded=0;whiteSpace=wrap;html=1;fontStyle=1;strokeWidth=2;shape=rhombus;perimeter=rhombusPerimeter;fillColor=#fff2cc;strokeColor=#d6b656;" parent="1" vertex="1">
          <mxGeometry x="3000" y="1447" width="120" height="100" as="geometry" />
        </mxCell>
        <mxCell id="dOY5xB3ABbcubVe6LwlI-157" style="edgeStyle=orthogonalEdgeStyle;rounded=0;orthogonalLoop=1;jettySize=auto;html=1;exitX=0.5;exitY=0;exitDx=0;exitDy=0;exitPerimeter=0;strokeColor=#00CC00;fontStyle=1;strokeWidth=2;" parent="1" source="dOY5xB3ABbcubVe6LwlI-158" target="dOY5xB3ABbcubVe6LwlI-223" edge="1">
          <mxGeometry relative="1" as="geometry" />
        </mxCell>
        <mxCell id="dOY5xB3ABbcubVe6LwlI-158" value="&lt;span style=&quot;border-color: var(--border-color);&quot;&gt;&lt;b&gt;TERMINATE PROCESS:&lt;/b&gt;&lt;br&gt;REJECT APPLICATION&lt;br&gt;&lt;/span&gt;" style="strokeWidth=2;html=1;shape=mxgraph.flowchart.terminator;whiteSpace=wrap;fillColor=#f8cecc;strokeColor=#b85450;" parent="1" vertex="1">
          <mxGeometry x="3465" y="1540" width="160" height="50" as="geometry" />
        </mxCell>
        <mxCell id="dOY5xB3ABbcubVe6LwlI-159" style="edgeStyle=orthogonalEdgeStyle;rounded=0;orthogonalLoop=1;jettySize=auto;html=1;exitX=1;exitY=0.5;exitDx=0;exitDy=0;entryX=0;entryY=0.5;entryDx=0;entryDy=0;strokeColor=#00CC00;fontStyle=1;strokeWidth=2;" parent="1" source="dOY5xB3ABbcubVe6LwlI-160" target="dOY5xB3ABbcubVe6LwlI-162" edge="1">
          <mxGeometry relative="1" as="geometry" />
        </mxCell>
        <mxCell id="dOY5xB3ABbcubVe6LwlI-160" value="RECEIVES CONFIRMATION OF FINGERPRINT BIOMETRIC CAPTURE COMPLETED" style="rounded=0;whiteSpace=wrap;html=1;fontStyle=1;strokeWidth=2;" parent="1" vertex="1">
          <mxGeometry x="3130" y="675" width="140" height="80" as="geometry" />
        </mxCell>
        <mxCell id="dOY5xB3ABbcubVe6LwlI-161" style="edgeStyle=orthogonalEdgeStyle;rounded=0;orthogonalLoop=1;jettySize=auto;html=1;exitX=0.5;exitY=0;exitDx=0;exitDy=0;entryX=0.5;entryY=1;entryDx=0;entryDy=0;strokeColor=#00CC00;fontStyle=1;strokeWidth=2;" parent="1" source="dOY5xB3ABbcubVe6LwlI-162" target="dOY5xB3ABbcubVe6LwlI-164" edge="1">
          <mxGeometry relative="1" as="geometry" />
        </mxCell>
        <mxCell id="dOY5xB3ABbcubVe6LwlI-162" value="NOTIFY THE PARTICIPANTS" style="rounded=0;whiteSpace=wrap;html=1;fontStyle=1;strokeWidth=2;" parent="1" vertex="1">
          <mxGeometry x="3320" y="1380" width="140" height="80" as="geometry" />
        </mxCell>
        <mxCell id="dOY5xB3ABbcubVe6LwlI-163" style="edgeStyle=orthogonalEdgeStyle;rounded=0;orthogonalLoop=1;jettySize=auto;html=1;exitX=0.5;exitY=0;exitDx=0;exitDy=0;entryX=0.5;entryY=1;entryDx=0;entryDy=0;strokeColor=#00CC00;fontStyle=1;strokeWidth=2;" parent="1" source="dOY5xB3ABbcubVe6LwlI-164" target="dOY5xB3ABbcubVe6LwlI-220" edge="1">
          <mxGeometry relative="1" as="geometry" />
        </mxCell>
        <mxCell id="dOY5xB3ABbcubVe6LwlI-164" value="RECEIVES NOTIFICATION OF SUCCESSFUL FINGERPRINT&lt;br&gt;&amp;nbsp;BIOMETRIC CAPTURING SUCCESSFUL" style="rounded=0;whiteSpace=wrap;html=1;fontStyle=1;strokeWidth=2;" parent="1" vertex="1">
          <mxGeometry x="3320" y="397.5" width="140" height="112.5" as="geometry" />
        </mxCell>
        <mxCell id="dOY5xB3ABbcubVe6LwlI-165" value="OB.1.4" style="text;html=1;align=center;verticalAlign=middle;resizable=0;points=[];autosize=1;strokeColor=none;fillColor=none;fontStyle=1;fontSize=30;strokeWidth=2;" parent="1" vertex="1">
          <mxGeometry x="2780" y="60" width="120" height="50" as="geometry" />
        </mxCell>
        <mxCell id="dOY5xB3ABbcubVe6LwlI-166" value="OFFLINE BIOMETRIC COLLECTION: FINGERPRINT DATA" style="text;html=1;align=center;verticalAlign=middle;resizable=0;points=[];autosize=1;strokeColor=none;fillColor=none;fontStyle=1;fontSize=30;strokeWidth=2;" parent="1" vertex="1">
          <mxGeometry x="2910" y="60" width="840" height="50" as="geometry" />
        </mxCell>
        <mxCell id="dOY5xB3ABbcubVe6LwlI-167" value="PRIVATE NETWORK&lt;br style=&quot;border-color: var(--border-color);&quot;&gt;SYSTEMS (SERVER)" style="text;html=1;align=center;verticalAlign=middle;resizable=0;points=[];autosize=1;strokeColor=none;fillColor=none;fontStyle=1;fontSize=23;strokeWidth=2;horizontal=0;" parent="1" vertex="1">
          <mxGeometry x="2070" y="1310" width="80" height="240" as="geometry" />
        </mxCell>
        <mxCell id="dOY5xB3ABbcubVe6LwlI-168" value="PUBLIC NETWORK&lt;br style=&quot;border-color: var(--border-color);&quot;&gt;SYSTEMS (CLIENT)" style="text;html=1;align=center;verticalAlign=middle;resizable=0;points=[];autosize=1;strokeColor=none;fillColor=none;fontStyle=1;fontSize=23;strokeWidth=2;horizontal=0;" parent="1" vertex="1">
          <mxGeometry x="2070" y="920" width="80" height="230" as="geometry" />
        </mxCell>
        <mxCell id="dOY5xB3ABbcubVe6LwlI-182" value="&lt;font style=&quot;font-size: 14px;&quot;&gt;PUBLIC NETWORK&lt;/font&gt;" style="swimlane;whiteSpace=wrap;html=1;" parent="1" vertex="1">
          <mxGeometry x="3780" y="894" width="200" height="167" as="geometry" />
        </mxCell>
        <mxCell id="dOY5xB3ABbcubVe6LwlI-183" value="DNS SERVERS" style="text;html=1;strokeColor=none;fillColor=none;align=center;verticalAlign=middle;whiteSpace=wrap;rounded=0;fontSize=14;" parent="dOY5xB3ABbcubVe6LwlI-182" vertex="1">
          <mxGeometry y="27" width="200" height="28" as="geometry" />
        </mxCell>
        <mxCell id="dOY5xB3ABbcubVe6LwlI-184" value="FTP SERVERS" style="text;html=1;strokeColor=none;fillColor=none;align=center;verticalAlign=middle;whiteSpace=wrap;rounded=0;fontSize=14;" parent="dOY5xB3ABbcubVe6LwlI-182" vertex="1">
          <mxGeometry y="55" width="200" height="28" as="geometry" />
        </mxCell>
        <mxCell id="dOY5xB3ABbcubVe6LwlI-185" value="MAIL SERVERS" style="text;html=1;strokeColor=none;fillColor=none;align=center;verticalAlign=middle;whiteSpace=wrap;rounded=0;fontSize=14;" parent="dOY5xB3ABbcubVe6LwlI-182" vertex="1">
          <mxGeometry y="83" width="200" height="28" as="geometry" />
        </mxCell>
        <mxCell id="dOY5xB3ABbcubVe6LwlI-186" value="PROXY SERVERS" style="text;html=1;strokeColor=none;fillColor=none;align=center;verticalAlign=middle;whiteSpace=wrap;rounded=0;fontSize=14;" parent="dOY5xB3ABbcubVe6LwlI-182" vertex="1">
          <mxGeometry y="111" width="200" height="28" as="geometry" />
        </mxCell>
        <mxCell id="dOY5xB3ABbcubVe6LwlI-187" value="WEB SERVERS" style="text;html=1;strokeColor=none;fillColor=none;align=center;verticalAlign=middle;whiteSpace=wrap;rounded=0;fontSize=14;" parent="dOY5xB3ABbcubVe6LwlI-182" vertex="1">
          <mxGeometry y="139" width="200" height="28" as="geometry" />
        </mxCell>
        <mxCell id="dOY5xB3ABbcubVe6LwlI-188" value="" style="edgeStyle=orthogonalEdgeStyle;rounded=0;orthogonalLoop=1;jettySize=auto;html=1;exitX=0.5;exitY=1;exitDx=0;exitDy=0;fontStyle=1;strokeWidth=2;strokeColor=#00CC00;" parent="1" source="dOY5xB3ABbcubVe6LwlI-122" target="dOY5xB3ABbcubVe6LwlI-189" edge="1">
          <mxGeometry relative="1" as="geometry">
            <mxPoint x="2270" y="340" as="sourcePoint" />
            <mxPoint x="2270" y="680" as="targetPoint" />
          </mxGeometry>
        </mxCell>
        <mxCell id="dOY5xB3ABbcubVe6LwlI-189" value="PROVIDE CONSENT &lt;br&gt;&lt;u&gt;OB.1.4.A&lt;/u&gt;" style="rounded=0;whiteSpace=wrap;html=1;fontStyle=1;strokeWidth=2;" parent="1" vertex="1">
          <mxGeometry x="2210" y="410" width="120" height="60" as="geometry" />
        </mxCell>
        <mxCell id="dOY5xB3ABbcubVe6LwlI-190" value="USER" style="shape=umlActor;verticalLabelPosition=bottom;verticalAlign=top;html=1;outlineConnect=0;fontStyle=1" parent="1" vertex="1">
          <mxGeometry x="2130" y="205" width="30" height="60" as="geometry" />
        </mxCell>
        <mxCell id="dOY5xB3ABbcubVe6LwlI-191" value="P/G/I" style="shape=umlActor;verticalLabelPosition=bottom;verticalAlign=top;html=1;outlineConnect=0;fontStyle=1" parent="1" vertex="1">
          <mxGeometry x="2130" y="425" width="30" height="60" as="geometry" />
        </mxCell>
        <mxCell id="dOY5xB3ABbcubVe6LwlI-192" value="ADMIN" style="shape=umlActor;verticalLabelPosition=bottom;verticalAlign=top;html=1;outlineConnect=0;fontStyle=1" parent="1" vertex="1">
          <mxGeometry x="2120" y="673.5" width="30" height="60" as="geometry" />
        </mxCell>
        <mxCell id="dOY5xB3ABbcubVe6LwlI-193" style="edgeStyle=orthogonalEdgeStyle;rounded=0;orthogonalLoop=1;jettySize=auto;html=1;exitX=1;exitY=0.5;exitDx=0;exitDy=0;strokeColor=#00CC00;fontStyle=1;strokeWidth=2;" parent="1" source="dOY5xB3ABbcubVe6LwlI-194" target="dOY5xB3ABbcubVe6LwlI-137" edge="1">
          <mxGeometry relative="1" as="geometry" />
        </mxCell>
        <mxCell id="dOY5xB3ABbcubVe6LwlI-194" value="IF &lt;br&gt;CONSENT GIVEN" style="rounded=0;whiteSpace=wrap;html=1;fontStyle=1;strokeWidth=2;shape=rhombus;perimeter=rhombusPerimeter;" parent="1" vertex="1">
          <mxGeometry x="2230" y="1345.5" width="90" height="80" as="geometry" />
        </mxCell>
        <mxCell id="dOY5xB3ABbcubVe6LwlI-195" value="" style="group" parent="1" vertex="1" connectable="0">
          <mxGeometry x="2180" y="976.5" width="150" height="78" as="geometry" />
        </mxCell>
        <mxCell id="dOY5xB3ABbcubVe6LwlI-196" value="MASK &amp;amp; ENCRYPT RID AND APPLICANT DETAILS&amp;nbsp;" style="rounded=0;whiteSpace=wrap;html=1;fontStyle=1;strokeWidth=2;fontSize=11;" parent="dOY5xB3ABbcubVe6LwlI-195" vertex="1">
          <mxGeometry x="30" y="9" width="120" height="60" as="geometry" />
        </mxCell>
        <mxCell id="dOY5xB3ABbcubVe6LwlI-197" value="CA" style="ellipse;whiteSpace=wrap;html=1;fillColor=#dae8fc;strokeColor=#6c8ebf;gradientColor=#7ea6e0;fontStyle=1" parent="dOY5xB3ABbcubVe6LwlI-195" vertex="1">
          <mxGeometry y="52" width="30" height="26" as="geometry" />
        </mxCell>
        <mxCell id="dOY5xB3ABbcubVe6LwlI-198" value="HSM" style="ellipse;whiteSpace=wrap;html=1;fillColor=#dae8fc;strokeColor=#6c8ebf;gradientColor=#7ea6e0;fontStyle=1" parent="dOY5xB3ABbcubVe6LwlI-195" vertex="1">
          <mxGeometry y="26" width="30" height="26" as="geometry" />
        </mxCell>
        <mxCell id="dOY5xB3ABbcubVe6LwlI-199" value="KM" style="ellipse;whiteSpace=wrap;html=1;fillColor=#dae8fc;strokeColor=#6c8ebf;gradientColor=#7ea6e0;fontStyle=1" parent="dOY5xB3ABbcubVe6LwlI-195" vertex="1">
          <mxGeometry width="30" height="26" as="geometry" />
        </mxCell>
        <mxCell id="dOY5xB3ABbcubVe6LwlI-206" style="edgeStyle=orthogonalEdgeStyle;rounded=0;orthogonalLoop=1;jettySize=auto;html=1;exitX=0.5;exitY=1;exitDx=0;exitDy=0;entryX=0;entryY=0.5;entryDx=0;entryDy=0;entryPerimeter=0;strokeColor=#FF0000;fontStyle=1;strokeWidth=2;" parent="1" source="dOY5xB3ABbcubVe6LwlI-194" target="dOY5xB3ABbcubVe6LwlI-158" edge="1">
          <mxGeometry relative="1" as="geometry">
            <Array as="points">
              <mxPoint x="2275" y="1565" />
            </Array>
          </mxGeometry>
        </mxCell>
        <mxCell id="dOY5xB3ABbcubVe6LwlI-207" style="edgeStyle=orthogonalEdgeStyle;rounded=0;orthogonalLoop=1;jettySize=auto;html=1;exitX=0;exitY=0.5;exitDx=0;exitDy=0;entryX=0.5;entryY=1;entryDx=0;entryDy=0;strokeColor=#00CC00;fontStyle=1;strokeWidth=2;" parent="1" source="dOY5xB3ABbcubVe6LwlI-208" target="dOY5xB3ABbcubVe6LwlI-135" edge="1">
          <mxGeometry relative="1" as="geometry">
            <Array as="points">
              <mxPoint x="2810" y="1423" />
              <mxPoint x="2810" y="1370" />
              <mxPoint x="2550" y="1370" />
            </Array>
          </mxGeometry>
        </mxCell>
        <mxCell id="dOY5xB3ABbcubVe6LwlI-208" value="IF &lt;br&gt;RETRY &lt;br&gt;COUNT &lt;br&gt;&amp;lt; = 3" style="rounded=0;whiteSpace=wrap;html=1;fontStyle=1;strokeWidth=2;shape=rhombus;perimeter=rhombusPerimeter;" parent="1" vertex="1">
          <mxGeometry x="2856.25" y="1385.5" width="87.5" height="74.5" as="geometry" />
        </mxCell>
        <mxCell id="Kqli0-K0um2hxibR6SLJ-3" style="edgeStyle=orthogonalEdgeStyle;rounded=0;orthogonalLoop=1;jettySize=auto;html=1;exitX=0.5;exitY=1;exitDx=0;exitDy=0;strokeColor=#FF0000;fontStyle=1;strokeWidth=2;" parent="1" source="dOY5xB3ABbcubVe6LwlI-209" target="dOY5xB3ABbcubVe6LwlI-208" edge="1">
          <mxGeometry relative="1" as="geometry" />
        </mxCell>
        <mxCell id="dOY5xB3ABbcubVe6LwlI-209" value="EXCEPTION AND ERROR HANDLING (COUNTER)" style="rounded=0;whiteSpace=wrap;html=1;fontStyle=1;strokeWidth=2;fontSize=11;shape=label;boundedLbl=1;backgroundOutline=1;size=9.769240159254764;" parent="1" vertex="1">
          <mxGeometry x="2825" y="1320" width="150" height="40" as="geometry" />
        </mxCell>
        <mxCell id="dOY5xB3ABbcubVe6LwlI-210" value="" style="group" parent="1" vertex="1" connectable="0">
          <mxGeometry x="2750" y="1047" width="150" height="78" as="geometry" />
        </mxCell>
        <mxCell id="dOY5xB3ABbcubVe6LwlI-211" value="MASK &amp;amp; ENCRYPT FINGERPRINT SCAN" style="rounded=0;whiteSpace=wrap;html=1;fontStyle=1;strokeWidth=2;fontSize=11;" parent="dOY5xB3ABbcubVe6LwlI-210" vertex="1">
          <mxGeometry x="30" y="9" width="120" height="60" as="geometry" />
        </mxCell>
        <mxCell id="dOY5xB3ABbcubVe6LwlI-212" value="CA" style="ellipse;whiteSpace=wrap;html=1;fillColor=#dae8fc;strokeColor=#6c8ebf;gradientColor=#7ea6e0;fontStyle=1" parent="dOY5xB3ABbcubVe6LwlI-210" vertex="1">
          <mxGeometry y="52" width="30" height="26" as="geometry" />
        </mxCell>
        <mxCell id="dOY5xB3ABbcubVe6LwlI-213" value="HSM" style="ellipse;whiteSpace=wrap;html=1;fillColor=#dae8fc;strokeColor=#6c8ebf;gradientColor=#7ea6e0;fontStyle=1" parent="dOY5xB3ABbcubVe6LwlI-210" vertex="1">
          <mxGeometry y="26" width="30" height="26" as="geometry" />
        </mxCell>
        <mxCell id="dOY5xB3ABbcubVe6LwlI-214" value="KM" style="ellipse;whiteSpace=wrap;html=1;fillColor=#dae8fc;strokeColor=#6c8ebf;gradientColor=#7ea6e0;fontStyle=1" parent="dOY5xB3ABbcubVe6LwlI-210" vertex="1">
          <mxGeometry width="30" height="26" as="geometry" />
        </mxCell>
        <mxCell id="dOY5xB3ABbcubVe6LwlI-215" style="edgeStyle=orthogonalEdgeStyle;rounded=0;orthogonalLoop=1;jettySize=auto;html=1;exitX=1;exitY=0.5;exitDx=0;exitDy=0;entryX=0.845;entryY=1.006;entryDx=0;entryDy=0;entryPerimeter=0;strokeColor=#00CC00;fontStyle=1;strokeWidth=2;jumpStyle=arc;jumpSize=11;" parent="1" source="dOY5xB3ABbcubVe6LwlI-208" target="dOY5xB3ABbcubVe6LwlI-148" edge="1">
          <mxGeometry relative="1" as="geometry">
            <Array as="points">
              <mxPoint x="3000" y="1423" />
              <mxPoint x="3000" y="1030" />
              <mxPoint x="2885" y="1030" />
            </Array>
          </mxGeometry>
        </mxCell>
        <mxCell id="dOY5xB3ABbcubVe6LwlI-216" value="RESET COUNTER" style="edgeStyle=orthogonalEdgeStyle;rounded=0;orthogonalLoop=1;jettySize=auto;html=1;exitX=1;exitY=0.5;exitDx=0;exitDy=0;entryX=0.5;entryY=0;entryDx=0;entryDy=0;strokeColor=#00CC00;fontStyle=1;strokeWidth=2;jumpStyle=arc;jumpSize=11;" parent="1" source="dOY5xB3ABbcubVe6LwlI-211" target="dOY5xB3ABbcubVe6LwlI-156" edge="1">
          <mxGeometry x="0.858" relative="1" as="geometry">
            <Array as="points">
              <mxPoint x="3060" y="1086" />
              <mxPoint x="3060" y="1350" />
            </Array>
            <mxPoint as="offset" />
          </mxGeometry>
        </mxCell>
        <mxCell id="dOY5xB3ABbcubVe6LwlI-218" style="edgeStyle=orthogonalEdgeStyle;rounded=0;orthogonalLoop=1;jettySize=auto;html=1;exitX=0.5;exitY=1;exitDx=0;exitDy=0;entryX=0;entryY=0.5;entryDx=0;entryDy=0;entryPerimeter=0;strokeColor=#FF0000;fontStyle=1;strokeWidth=2;" parent="1" source="dOY5xB3ABbcubVe6LwlI-208" target="dOY5xB3ABbcubVe6LwlI-158" edge="1">
          <mxGeometry relative="1" as="geometry" />
        </mxCell>
        <mxCell id="dOY5xB3ABbcubVe6LwlI-219" style="edgeStyle=orthogonalEdgeStyle;rounded=0;orthogonalLoop=1;jettySize=auto;html=1;exitX=0.5;exitY=0;exitDx=0;exitDy=0;strokeColor=#00CC00;fontStyle=1;strokeWidth=2;" parent="1" source="dOY5xB3ABbcubVe6LwlI-220" target="dOY5xB3ABbcubVe6LwlI-227" edge="1">
          <mxGeometry relative="1" as="geometry" />
        </mxCell>
        <mxCell id="dOY5xB3ABbcubVe6LwlI-220" value="RECEIVES NOTIFICATION OF SUCCESSFUL FINGERPRINT&lt;br style=&quot;border-color: var(--border-color);&quot;&gt;&amp;nbsp;BIOMETRIC CAPTURING SUCCESSFUL" style="rounded=0;whiteSpace=wrap;html=1;fontStyle=1;strokeWidth=2;" parent="1" vertex="1">
          <mxGeometry x="3320" y="210" width="140" height="110" as="geometry" />
        </mxCell>
        <mxCell id="dOY5xB3ABbcubVe6LwlI-221" value="NOTIFICATION GENERATOR" style="rounded=0;whiteSpace=wrap;html=1;fontStyle=1;strokeWidth=2;fontSize=11;fillColor=default;strokeColor=default;" parent="1" vertex="1">
          <mxGeometry x="3350" y="1264" width="240" height="37" as="geometry" />
        </mxCell>
        <mxCell id="dOY5xB3ABbcubVe6LwlI-222" style="edgeStyle=orthogonalEdgeStyle;rounded=0;orthogonalLoop=1;jettySize=auto;html=1;exitX=0.5;exitY=0;exitDx=0;exitDy=0;entryX=0.5;entryY=1;entryDx=0;entryDy=0;strokeColor=#00CC00;fontStyle=1;strokeWidth=2;" parent="1" source="dOY5xB3ABbcubVe6LwlI-223" target="dOY5xB3ABbcubVe6LwlI-225" edge="1">
          <mxGeometry relative="1" as="geometry" />
        </mxCell>
        <mxCell id="dOY5xB3ABbcubVe6LwlI-223" value="RECEIVES NOTIFICATION OF UNSUCCESSFUL FINGERPRINT&lt;br&gt;&amp;nbsp;BIOMETRIC CAPTURING" style="rounded=0;whiteSpace=wrap;html=1;fontStyle=1;strokeWidth=2;" parent="1" vertex="1">
          <mxGeometry x="3475" y="406.25" width="140" height="95" as="geometry" />
        </mxCell>
        <mxCell id="dOY5xB3ABbcubVe6LwlI-224" style="edgeStyle=orthogonalEdgeStyle;rounded=0;orthogonalLoop=1;jettySize=auto;html=1;exitX=1;exitY=0.5;exitDx=0;exitDy=0;strokeColor=#00CC00;fontStyle=1;strokeWidth=2;" parent="1" source="dOY5xB3ABbcubVe6LwlI-225" target="dOY5xB3ABbcubVe6LwlI-227" edge="1">
          <mxGeometry relative="1" as="geometry" />
        </mxCell>
        <mxCell id="dOY5xB3ABbcubVe6LwlI-225" value="RECEIVES NOTIFICATION OF UNSUCCESSFUL FINGERPRINT&lt;br style=&quot;border-color: var(--border-color);&quot;&gt;&amp;nbsp;BIOMETRIC CAPTURING" style="rounded=0;whiteSpace=wrap;html=1;fontStyle=1;strokeWidth=2;" parent="1" vertex="1">
          <mxGeometry x="3475" y="215" width="140" height="95" as="geometry" />
        </mxCell>
        <mxCell id="dOY5xB3ABbcubVe6LwlI-226" value="" style="edgeStyle=orthogonalEdgeStyle;rounded=0;orthogonalLoop=1;jettySize=auto;html=1;strokeColor=#00CC00;fontStyle=1;strokeWidth=2;" parent="1" source="dOY5xB3ABbcubVe6LwlI-227" target="dOY5xB3ABbcubVe6LwlI-228" edge="1">
          <mxGeometry relative="1" as="geometry" />
        </mxCell>
        <mxCell id="dOY5xB3ABbcubVe6LwlI-227" value="LOGS THE PROCESS AND STATUS" style="rounded=0;whiteSpace=wrap;html=1;fontStyle=1;strokeWidth=2;shape=label;boundedLbl=1;backgroundOutline=1;size=15;" parent="1" vertex="1">
          <mxGeometry x="3600" y="1370" width="120" height="70.5" as="geometry" />
        </mxCell>
        <mxCell id="dOY5xB3ABbcubVe6LwlI-228" value="&lt;b&gt;END&lt;/b&gt;" style="strokeWidth=2;html=1;shape=mxgraph.flowchart.terminator;whiteSpace=wrap;fillColor=#f8cecc;strokeColor=#b85450;" parent="1" vertex="1">
          <mxGeometry x="3610" y="1469.5" width="100" height="40" as="geometry" />
        </mxCell>
        <mxCell id="dOY5xB3ABbcubVe6LwlI-229" value="IDA" style="ellipse;whiteSpace=wrap;html=1;fillColor=#dae8fc;strokeColor=#6c8ebf;gradientColor=#7ea6e0;fontStyle=1" parent="1" vertex="1">
          <mxGeometry x="3600" y="1344" width="30" height="26" as="geometry" />
        </mxCell>
        <mxCell id="dOY5xB3ABbcubVe6LwlI-247" style="edgeStyle=orthogonalEdgeStyle;rounded=0;orthogonalLoop=1;jettySize=auto;html=1;exitX=1;exitY=0.5;exitDx=0;exitDy=0;entryX=0.25;entryY=1;entryDx=0;entryDy=0;strokeColor=#00CC00;fontStyle=1;strokeWidth=2;jumpStyle=arc;jumpSize=11;" parent="1" source="dOY5xB3ABbcubVe6LwlI-240" target="dOY5xB3ABbcubVe6LwlI-148" edge="1">
          <mxGeometry relative="1" as="geometry">
            <Array as="points">
              <mxPoint x="2532" y="800" />
              <mxPoint x="2790" y="800" />
            </Array>
          </mxGeometry>
        </mxCell>
        <mxCell id="dOY5xB3ABbcubVe6LwlI-240" value="IF AUTH. SUCCESS" style="rounded=0;whiteSpace=wrap;html=1;fontStyle=1;strokeWidth=2;shape=rhombus;perimeter=rhombusPerimeter;" parent="1" vertex="1">
          <mxGeometry x="2425" y="1265.5" width="90" height="80" as="geometry" />
        </mxCell>
        <mxCell id="dOY5xB3ABbcubVe6LwlI-245" style="edgeStyle=orthogonalEdgeStyle;rounded=0;orthogonalLoop=1;jettySize=auto;html=1;exitX=0.5;exitY=1;exitDx=0;exitDy=0;entryX=0.5;entryY=0;entryDx=0;entryDy=0;strokeColor=#00CC00;fontStyle=1;strokeWidth=2;jumpStyle=arc;jumpSize=11;" parent="1" source="dOY5xB3ABbcubVe6LwlI-241" target="dOY5xB3ABbcubVe6LwlI-240" edge="1">
          <mxGeometry relative="1" as="geometry">
            <Array as="points">
              <mxPoint x="2452" y="570" />
              <mxPoint x="2470" y="570" />
            </Array>
          </mxGeometry>
        </mxCell>
        <mxCell id="dOY5xB3ABbcubVe6LwlI-241" value="AUTHENTICATE USING (ONE):&lt;br&gt;FINGERPRINT: &lt;u&gt;AU.3.B&lt;/u&gt;&lt;br&gt;FACIAL:&amp;nbsp;&lt;u style=&quot;border-color: var(--border-color);&quot;&gt;AU.3.D&lt;/u&gt;&lt;br&gt;IRIS:&amp;nbsp;&lt;u style=&quot;border-color: var(--border-color);&quot;&gt;AU.3.C&lt;/u&gt;" style="rounded=0;whiteSpace=wrap;html=1;fontStyle=1;strokeWidth=2;" parent="1" vertex="1">
          <mxGeometry x="2372" y="430" width="160" height="80" as="geometry" />
        </mxCell>
        <mxCell id="dOY5xB3ABbcubVe6LwlI-246" value="AC" style="ellipse;whiteSpace=wrap;html=1;fillColor=#dae8fc;strokeColor=#6c8ebf;gradientColor=#7ea6e0;fontStyle=1" parent="1" vertex="1">
          <mxGeometry x="2425" y="1260" width="30" height="28.08" as="geometry" />
        </mxCell>
        <mxCell id="dOY5xB3ABbcubVe6LwlI-248" style="edgeStyle=orthogonalEdgeStyle;rounded=0;orthogonalLoop=1;jettySize=auto;html=1;exitX=0.5;exitY=1;exitDx=0;exitDy=0;entryX=0;entryY=0.5;entryDx=0;entryDy=0;entryPerimeter=0;strokeColor=#FF0000;fontStyle=1;strokeWidth=2;" parent="1" source="dOY5xB3ABbcubVe6LwlI-240" target="dOY5xB3ABbcubVe6LwlI-158" edge="1">
          <mxGeometry relative="1" as="geometry" />
        </mxCell>
        <mxCell id="dOY5xB3ABbcubVe6LwlI-249" value="&lt;font style=&quot;font-size: 14px;&quot;&gt;LEGEND&lt;/font&gt;" style="swimlane;whiteSpace=wrap;html=1;" parent="1" vertex="1">
          <mxGeometry x="3780" y="110" width="200" height="260" as="geometry" />
        </mxCell>
        <mxCell id="dOY5xB3ABbcubVe6LwlI-250" value="KM" style="ellipse;whiteSpace=wrap;html=1;fillColor=#dae8fc;strokeColor=#6c8ebf;gradientColor=#7ea6e0;fontStyle=1" parent="dOY5xB3ABbcubVe6LwlI-249" vertex="1">
          <mxGeometry x="10" y="30" width="30" height="26" as="geometry" />
        </mxCell>
        <mxCell id="dOY5xB3ABbcubVe6LwlI-251" value="IDA" style="ellipse;whiteSpace=wrap;html=1;fillColor=#dae8fc;strokeColor=#6c8ebf;gradientColor=#7ea6e0;fontStyle=1" parent="dOY5xB3ABbcubVe6LwlI-249" vertex="1">
          <mxGeometry x="10" y="131" width="30" height="26" as="geometry" />
        </mxCell>
        <mxCell id="dOY5xB3ABbcubVe6LwlI-252" value="HSM" style="ellipse;whiteSpace=wrap;html=1;fillColor=#dae8fc;strokeColor=#6c8ebf;gradientColor=#7ea6e0;fontStyle=1" parent="dOY5xB3ABbcubVe6LwlI-249" vertex="1">
          <mxGeometry x="10" y="91" width="30" height="26" as="geometry" />
        </mxCell>
        <mxCell id="dOY5xB3ABbcubVe6LwlI-253" value="KR" style="ellipse;whiteSpace=wrap;html=1;fillColor=#dae8fc;strokeColor=#6c8ebf;gradientColor=#7ea6e0;fontStyle=1" parent="dOY5xB3ABbcubVe6LwlI-249" vertex="1">
          <mxGeometry x="10" y="59" width="30" height="26" as="geometry" />
        </mxCell>
        <mxCell id="dOY5xB3ABbcubVe6LwlI-254" value="Key Manager" style="text;html=1;strokeColor=none;fillColor=none;align=center;verticalAlign=middle;whiteSpace=wrap;rounded=0;fontSize=14;" parent="dOY5xB3ABbcubVe6LwlI-249" vertex="1">
          <mxGeometry x="40" y="30" width="160" height="28" as="geometry" />
        </mxCell>
        <mxCell id="dOY5xB3ABbcubVe6LwlI-255" value="Key Revocation" style="text;html=1;strokeColor=none;fillColor=none;align=center;verticalAlign=middle;whiteSpace=wrap;rounded=0;fontSize=14;" parent="dOY5xB3ABbcubVe6LwlI-249" vertex="1">
          <mxGeometry x="40" y="58" width="160" height="28" as="geometry" />
        </mxCell>
        <mxCell id="dOY5xB3ABbcubVe6LwlI-256" value="Hardware Security Module" style="text;html=1;strokeColor=none;fillColor=none;align=center;verticalAlign=middle;whiteSpace=wrap;rounded=0;fontSize=14;" parent="dOY5xB3ABbcubVe6LwlI-249" vertex="1">
          <mxGeometry x="40" y="90" width="160" height="28" as="geometry" />
        </mxCell>
        <mxCell id="dOY5xB3ABbcubVe6LwlI-257" value="ID Authentication (DB)" style="text;html=1;strokeColor=none;fillColor=none;align=center;verticalAlign=middle;whiteSpace=wrap;rounded=0;fontSize=14;" parent="dOY5xB3ABbcubVe6LwlI-249" vertex="1">
          <mxGeometry x="40" y="130" width="160" height="28" as="geometry" />
        </mxCell>
        <mxCell id="dOY5xB3ABbcubVe6LwlI-258" value="AC" style="ellipse;whiteSpace=wrap;html=1;fillColor=#dae8fc;strokeColor=#6c8ebf;gradientColor=#7ea6e0;fontStyle=1" parent="dOY5xB3ABbcubVe6LwlI-249" vertex="1">
          <mxGeometry x="10" y="161" width="30" height="26" as="geometry" />
        </mxCell>
        <mxCell id="dOY5xB3ABbcubVe6LwlI-259" value="Access Control" style="text;html=1;strokeColor=none;fillColor=none;align=center;verticalAlign=middle;whiteSpace=wrap;rounded=0;fontSize=14;" parent="dOY5xB3ABbcubVe6LwlI-249" vertex="1">
          <mxGeometry x="40" y="160" width="160" height="28" as="geometry" />
        </mxCell>
        <mxCell id="dOY5xB3ABbcubVe6LwlI-260" value="Certificate Authority" style="text;html=1;strokeColor=none;fillColor=none;align=center;verticalAlign=middle;whiteSpace=wrap;rounded=0;fontSize=14;" parent="dOY5xB3ABbcubVe6LwlI-249" vertex="1">
          <mxGeometry x="40" y="190" width="160" height="28" as="geometry" />
        </mxCell>
        <mxCell id="dOY5xB3ABbcubVe6LwlI-261" value="CA" style="ellipse;whiteSpace=wrap;html=1;fillColor=#dae8fc;strokeColor=#6c8ebf;gradientColor=#7ea6e0;fontStyle=1" parent="dOY5xB3ABbcubVe6LwlI-249" vertex="1">
          <mxGeometry x="10" y="191" width="30" height="26" as="geometry" />
        </mxCell>
        <mxCell id="dOY5xB3ABbcubVe6LwlI-262" value="" style="rhombus;whiteSpace=wrap;html=1;fillColor=#fff2cc;strokeColor=#d6b656;rounded=0;fontStyle=1;strokeWidth=2;" parent="dOY5xB3ABbcubVe6LwlI-249" vertex="1">
          <mxGeometry x="10" y="224" width="30" height="30" as="geometry" />
        </mxCell>
        <mxCell id="dOY5xB3ABbcubVe6LwlI-263" value="Deduplication Process" style="text;html=1;strokeColor=none;fillColor=none;align=center;verticalAlign=middle;whiteSpace=wrap;rounded=0;fontSize=14;" parent="dOY5xB3ABbcubVe6LwlI-249" vertex="1">
          <mxGeometry x="40" y="224" width="160" height="28" as="geometry" />
        </mxCell>
        <mxCell id="Kqli0-K0um2hxibR6SLJ-1" style="edgeStyle=orthogonalEdgeStyle;rounded=0;orthogonalLoop=1;jettySize=auto;html=1;exitX=1;exitY=0.5;exitDx=0;exitDy=0;entryX=0.5;entryY=1;entryDx=0;entryDy=0;entryPerimeter=0;strokeColor=#00CC00;fontStyle=1;strokeWidth=2;" parent="1" source="dOY5xB3ABbcubVe6LwlI-156" target="dOY5xB3ABbcubVe6LwlI-201" edge="1">
          <mxGeometry relative="1" as="geometry" />
        </mxCell>
        <mxCell id="Kqli0-K0um2hxibR6SLJ-2" style="edgeStyle=orthogonalEdgeStyle;rounded=0;orthogonalLoop=1;jettySize=auto;html=1;exitX=0.5;exitY=0;exitDx=0;exitDy=0;strokeColor=#00CC00;fontStyle=1;strokeWidth=2;" parent="1" source="dOY5xB3ABbcubVe6LwlI-201" target="dOY5xB3ABbcubVe6LwlI-160" edge="1">
          <mxGeometry relative="1" as="geometry" />
        </mxCell>
        <mxCell id="dOY5xB3ABbcubVe6LwlI-201" value="STORE FINGERPRINT BIOMETRIC DATA IN RID ACCOUNT&lt;br&gt;WITH ENCRYPTION AND HASHING" style="rounded=0;whiteSpace=wrap;html=1;fontStyle=1;strokeWidth=2;fontSize=11;shape=label;boundedLbl=1;backgroundOutline=1;size=15;" parent="1" vertex="1">
          <mxGeometry x="3140" y="1300" width="120" height="85.5" as="geometry" />
        </mxCell>
        <mxCell id="dOY5xB3ABbcubVe6LwlI-202" value="IDA" style="ellipse;whiteSpace=wrap;html=1;fillColor=#dae8fc;strokeColor=#6c8ebf;gradientColor=#7ea6e0;fontStyle=1" parent="1" vertex="1">
          <mxGeometry x="3140" y="1269.92" width="30" height="28.08" as="geometry" />
        </mxCell>
        <mxCell id="dOY5xB3ABbcubVe6LwlI-203" value="HSM" style="ellipse;whiteSpace=wrap;html=1;fillColor=#dae8fc;strokeColor=#6c8ebf;gradientColor=#7ea6e0;fontStyle=1" parent="1" vertex="1">
          <mxGeometry x="3108" y="1355.5" width="30" height="28.08" as="geometry" />
        </mxCell>
        <mxCell id="dOY5xB3ABbcubVe6LwlI-204" value="KM" style="ellipse;whiteSpace=wrap;html=1;fillColor=#dae8fc;strokeColor=#6c8ebf;gradientColor=#7ea6e0;fontStyle=1" parent="1" vertex="1">
          <mxGeometry x="3108" y="1300" width="30" height="28.08" as="geometry" />
        </mxCell>
        <mxCell id="dOY5xB3ABbcubVe6LwlI-230" value="" style="group" parent="1" vertex="1" connectable="0">
          <mxGeometry x="2060" y="834" width="1690" height="60" as="geometry" />
        </mxCell>
        <mxCell id="dOY5xB3ABbcubVe6LwlI-231" value="API/ HTTPS (SSL/TLS)" style="shape=label;whiteSpace=wrap;html=1;boundedLbl=1;backgroundOutline=1;darkOpacity=0.05;darkOpacity2=0.1;fillColor=#f8cecc;strokeColor=#b85450;rounded=0;fontStyle=1" parent="dOY5xB3ABbcubVe6LwlI-230" vertex="1">
          <mxGeometry width="1689.9999999999998" height="20" as="geometry" />
        </mxCell>
        <mxCell id="dOY5xB3ABbcubVe6LwlI-232" value="" style="group" parent="dOY5xB3ABbcubVe6LwlI-230" vertex="1" connectable="0">
          <mxGeometry y="20" width="1689.9999999999998" height="40" as="geometry" />
        </mxCell>
        <mxCell id="dOY5xB3ABbcubVe6LwlI-233" value="&lt;b&gt;SINGLE/ DUAL FIREWALL&lt;/b&gt;" style="shape=label;whiteSpace=wrap;html=1;boundedLbl=1;backgroundOutline=1;darkOpacity=0.05;darkOpacity2=0.1;fillColor=#e51400;fontColor=#ffffff;strokeColor=#B20000;rounded=0;" parent="dOY5xB3ABbcubVe6LwlI-232" vertex="1">
          <mxGeometry width="1689.9999999999998" height="20" as="geometry" />
        </mxCell>
        <mxCell id="dOY5xB3ABbcubVe6LwlI-234" value="&lt;b&gt;IDS, IPS, HONEYPOT&lt;/b&gt;" style="shape=label;whiteSpace=wrap;html=1;boundedLbl=1;backgroundOutline=1;darkOpacity=0.05;darkOpacity2=0.1;fillColor=#f0a30a;strokeColor=#BD7000;rounded=0;fontColor=#000000;" parent="dOY5xB3ABbcubVe6LwlI-232" vertex="1">
          <mxGeometry y="20" width="1689.9999999999998" height="20" as="geometry" />
        </mxCell>
        <mxCell id="XMwFO1tQXb5aR20BOAQt-1" style="edgeStyle=orthogonalEdgeStyle;rounded=0;orthogonalLoop=1;jettySize=auto;html=1;exitX=0.5;exitY=1;exitDx=0;exitDy=0;strokeColor=#00CC00;fontStyle=1;strokeWidth=2;" parent="1" source="dOY5xB3ABbcubVe6LwlI-196" target="dOY5xB3ABbcubVe6LwlI-194" edge="1">
          <mxGeometry relative="1" as="geometry" />
        </mxCell>
        <mxCell id="dOY5xB3ABbcubVe6LwlI-235" value="" style="group" parent="1" vertex="1" connectable="0">
          <mxGeometry x="2060" y="1178" width="1690" height="60" as="geometry" />
        </mxCell>
        <mxCell id="dOY5xB3ABbcubVe6LwlI-236" value="API/ HTTPS (SSL/TLS)" style="shape=label;whiteSpace=wrap;html=1;boundedLbl=1;backgroundOutline=1;darkOpacity=0.05;darkOpacity2=0.1;fillColor=#f8cecc;strokeColor=#b85450;rounded=0;fontStyle=1" parent="dOY5xB3ABbcubVe6LwlI-235" vertex="1">
          <mxGeometry width="1689.9999999999998" height="20" as="geometry" />
        </mxCell>
        <mxCell id="dOY5xB3ABbcubVe6LwlI-237" value="" style="group" parent="dOY5xB3ABbcubVe6LwlI-235" vertex="1" connectable="0">
          <mxGeometry y="20" width="1689.9999999999998" height="40" as="geometry" />
        </mxCell>
        <mxCell id="dOY5xB3ABbcubVe6LwlI-238" value="&lt;b&gt;SINGLE/ DUAL FIREWALL&lt;/b&gt;" style="shape=label;whiteSpace=wrap;html=1;boundedLbl=1;backgroundOutline=1;darkOpacity=0.05;darkOpacity2=0.1;fillColor=#e51400;fontColor=#ffffff;strokeColor=#B20000;rounded=0;" parent="dOY5xB3ABbcubVe6LwlI-237" vertex="1">
          <mxGeometry width="1689.9999999999998" height="20" as="geometry" />
        </mxCell>
        <mxCell id="dOY5xB3ABbcubVe6LwlI-239" value="&lt;b&gt;IDS, IPS, HONEYPOT&lt;/b&gt;" style="shape=label;whiteSpace=wrap;html=1;boundedLbl=1;backgroundOutline=1;darkOpacity=0.05;darkOpacity2=0.1;fillColor=#f0a30a;strokeColor=#BD7000;rounded=0;fontColor=#000000;" parent="dOY5xB3ABbcubVe6LwlI-237" vertex="1">
          <mxGeometry y="20" width="1689.9999999999998" height="20" as="geometry" />
        </mxCell>
        <mxCell id="9VqC_0QieUnNjOZ21vxj-2" value="&lt;div style=&quot;font-size: 18px;&quot;&gt;&lt;font style=&quot;font-size: 18px;&quot;&gt;&lt;b style=&quot;font-size: 18px;&quot;&gt;Purpose:&lt;/b&gt;&lt;/font&gt;&lt;/div&gt;&lt;div style=&quot;&quot;&gt;This SOP covers the process of collecting an applicant&#39;s fingerprint biometrics, including consent acquisition, secure capture, and data transmission.&lt;br&gt;&lt;/div&gt;" style="whiteSpace=wrap;html=1;align=left;rounded=0;strokeWidth=2;verticalAlign=middle;fontFamily=Helvetica;fontSize=18;fontStyle=0;" vertex="1" parent="1">
          <mxGeometry x="2030" y="-10" width="1750" height="60" as="geometry" />
        </mxCell>
      </root>
    </mxGraphModel>
  </diagram>
</mxfile>
